#!OML:ASF F:\VICON\USERDATA\INSTALL\Justin_Nancy\Justin_Nancy.ASF
:FULLY-SPECIFIED
:DEGREES
109
root -0.0141146 17.4281 -33.7972 9.42106 -0.844906 1.05692
lowerback 5.26986 -2.39804 -4.12425
upperback -2.7016 -3.28787 4.76263
thorax -5.27396 -1.39548 7.66243
lowerneck -7.74533 -0.569652 -13.3917
upperneck 16.7852 0.27896 5.05545
head 6.36637 -0.305206 3.857
rclavicle -1.61016e-014 3.02153e-014
rhumerus -32.4507 1.30168 -81.9013
rradius 30.0059
rwrist 5.77653
rhand -18.7146 11.2758
rfingers 7.12502
rthumb 7.58068 -18.5684
lclavicle -1.61016e-014 3.02153e-014
lhumerus -42.0901 20.4193 80.5618
lradius 32.3887
lwrist -8.41605
lhand -15.8904 23.4211
lfingers 7.12502
lthumb 10.3059 53.1486
rfemur -11.8647 4.58571 24.9421
rtibia 26.2383
rfoot -18.7724 -10.9162
rtoes 3.35209
lfemur -25.1939 -2.38319 -17.8937
ltibia 46.8705
lfoot -14.4165 4.37879
ltoes -8.54304
110
root -0.0100061 17.4374 -33.7799 9.59657 -1.11399 0.976751
lowerback 5.27932 -2.48586 -4.29479
upperback -2.88225 -3.40338 5.06893
thorax -5.42673 -1.43053 8.11271
lowerneck -7.16264 -0.434878 -13.7233
upperneck 16.7044 0.467223 4.77861
head 6.2271 -0.259023 3.82863
rclavicle 4.11484e-014 -3.18055e-015
rhumerus -32.4295 2.07271 -81.6802
rradius 30.0451
rwrist 5.96046
rhand -17.9371 10.4947
rfingers 7.12502
rthumb 8.33103 -19.321
lclavicle 4.11484e-014 -3.18055e-015
lhumerus -42.7013 21.2131 80.5294
lradius 32.7819
lwrist -8.37113
lhand -15.791 23.7827
lfingers 7.12502
lthumb 10.4017 53.5054
rfemur -11.9157 4.4002 24.9081
rtibia 25.972
rfoot -18.7619 -10.3337
rtoes 5.7601
lfemur -26.096 -1.94818 -17.9014
ltibia 48.0185
lfoot -14.0553 4.06248
ltoes -9.41737
111
root -0.0136225 17.4338 -33.7632 9.68952 -1.25975 1.04722
lowerback 5.16798 -2.20514 -4.10917
upperback -2.793 -3.02196 4.8137
thorax -5.35358 -1.25696 7.68597
lowerneck -7.09408 -0.531895 -13.4056
upperneck 16.3637 0.255345 4.94877
head 6.12273 -0.317374 3.81114
rclavicle 4.9895e-014 -1.74931e-014
rhumerus -32.4369 1.38327 -81.6296
rradius 30.0163
rwrist 5.85044
rhand -17.8904 10.9253
rfingers 7.12502
rthumb 8.3761 -18.8886
lclavicle 4.9895e-014 -1.74931e-014
lhumerus -42.2662 20.5596 80.6605
lradius 32.7654
lwrist -7.91538
lhand -15.2567 24.7461
lfingers 7.12502
lthumb 10.9171 54.4423
rfemur -11.8137 4.26576 24.7899
rtibia 25.7066
rfoot -18.6295 -10.1447
rtoes 2.9208
lfemur -26.957 -1.51252 -18.0495
ltibia 49.1676
lfoot -13.2284 4.09728
ltoes -8.97077
112
root -0.0194767 17.4238 -33.747 9.78989 -1.03438 0.811561
lowerback 4.9567 -1.90365 -3.32454
upperback -2.47409 -2.57453 4.45186
thorax -5.01247 -1.08788 6.7807
lowerneck -7.57078 -1.11834 -13.1603
upperneck 16.5399 -0.556318 5.24244
head 6.33545 -0.673393 3.81336
rclavicle -8.15017e-015 3.18055e-015
rhumerus -32.2629 0.154692 -81.6891
rradius 30.3167
rwrist 5.40402
rhand -18.9292 10.3951
rfingers 7.12502
rthumb 7.37349 -19.4564
lclavicle -8.15017e-015 3.18055e-015
lhumerus -41.1236 19.461 80.9386
lradius 32.7207
lwrist -8.35743
lhand -15.3899 25.0955
lfingers 7.12502
lthumb 10.7887 54.7984
rfemur -11.6452 4.2277 25.1108
rtibia 25.3571
rfoot -18.4352 -10.4056
rtoes 1.15252
lfemur -27.924 -1.34107 -17.7463
ltibia 50.3275
lfoot -12.625 4.21176
ltoes -8.77205
113
root -0.0241203 17.4214 -33.724 9.87887 -0.773399 0.6168
lowerback 4.88829 -2.02008 -3.04627
upperback -2.48258 -2.70514 4.54843
thorax -4.97141 -1.16206 6.73111
lowerneck -7.64785 -0.868872 -13.1429
upperneck 16.3443 -0.217871 5.31445
head 6.25243 -0.495998 3.85633
rclavicle 9.74045e-015 1.27222e-014
rhumerus -32.2875 0.484656 -81.7173
rradius 30.4522
rwrist 4.90811
rhand -19.5023 10.0783
rfingers 7.12502
rthumb 6.82025 -19.7919
lclavicle 9.74045e-015 1.27222e-014
lhumerus -41.2618 19.6575 80.9021
lradius 32.9756
lwrist -8.6034
lhand -16.2051 24.5971
lfingers 7.12502
lthumb 10.0023 54.3394
rfemur -11.4086 4.14466 25.3854
rtibia 24.9267
rfoot -18.2044 -10.5039
rtoes 0.625534
lfemur -28.8149 -1.05209 -17.5066
ltibia 51.3394
lfoot -12.7102 3.81232
ltoes -9.80035
114
root -0.0308436 17.4207 -33.696 9.72603 -0.27387 0.626692
lowerback 5.26352 -2.47738 -3.44288
upperback -2.75107 -3.32844 4.9967
thorax -5.33837 -1.43242 7.52765
lowerneck -6.70282 -0.611531 -13.8631
upperneck 16.435 0.108784 5.194
head 6.09201 -0.403892 3.95501
rclavicle 1.21259e-014 4.77083e-015
rhumerus -32.7468 2.42416 -81.8356
rradius 30.5599
rwrist 3.1165
rhand -19.854 10.7617
rfingers 7.12502
rthumb 6.48072 -19.1191
lclavicle 1.21259e-014 4.77083e-015
lhumerus -42.4247 20.8158 80.6538
lradius 33.5469
lwrist -8.58846
lhand -15.9479 24.8386
lfingers 7.12502
lthumb 10.2504 54.5688
rfemur -10.8321 3.91845 25.514
rtibia 24.4901
rfoot -18.1416 -10.6993
rtoes 1.1696
lfemur -29.425 -1.16811 -17.4323
ltibia 52.2194
lfoot -13.0849 2.91987
ltoes -9.31391
